<svg width="204" height="85" viewBox="0 0 204 85" fill="none" xmlns="http://www.w3.org/2000/svg">
<path d="M61.33 38.0624C63.51 33.2724 65.05 28.6524 62.34 26.6424C59.63 24.6324 49.07 22.6524 45.69 26.5524C42.31 30.4524 59.43 42.2224 61.33 38.0624Z" fill="#79BB56"/>
<path d="M5.60023 15.5626C8.67023 2.58259 20.4102 3.90259 20.2202 17.2626C20.1502 19.1426 5.49023 21.6726 5.60023 15.5626Z" fill="#79BB56"/>
<path d="M22.4101 18.2926C21.5001 13.5526 26.7101 8.99259 31.3101 9.05259C35.9101 9.11259 36.8201 18.7926 35.7701 20.1926C34.7301 21.5926 22.8001 20.2926 22.4101 18.2926Z" fill="#79BB56"/>
<path d="M37.84 19.8525C38.4 15.0625 44.74 12.2725 49.11 13.7125C53.48 15.1525 51.44 24.6525 50.02 25.6725C48.6 26.6925 37.61 21.8725 37.84 19.8525Z" fill="#79BB56"/>
<path d="M0 19.9825C0 17.8525 1.73 16.1225 3.86 16.1225C12.63 16.8425 36.99 14.1725 44.66 18.6825C68.01 29.6425 67.48 71.3025 42.9 80.6125C34.71 84.7025 13.11 82.6025 3.87 83.0925C1.73 83.0925 0 81.3625 0 79.2325V19.9825ZM17.48 64.7725C17.37 69.9525 24.63 68.4425 27.82 68.6325C41.47 69.1525 46.8 52.9725 42.94 41.9525C40.14 32.5525 30.35 29.6425 21.34 30.5625C19.21 30.5625 17.48 32.2925 17.48 34.4225V64.7725V64.7725Z" fill="#23AE81"/>
<path d="M64.3201 69.3825C61.5401 72.7825 76.1101 73.8925 78.4701 72.0225C80.7701 70.9225 84.0901 71.6625 85.9501 73.3525C86.5801 75.9825 81.6301 77.9525 79.7601 79.2925C57.0301 90.0925 38.0501 59.2425 62.6501 48.0525C73.4301 43.3125 90.4001 51.6125 87.2801 64.2525C87.2901 64.2425 64.3201 69.3825 64.3201 69.3825ZM70.2501 55.2525C67.3701 54.2525 59.0101 59.9325 62.6701 61.5625L75.4601 58.7125C76.0801 58.5725 76.2901 57.7925 75.8201 57.3625C74.2801 55.9725 72.5001 55.2325 70.2501 55.2525Z" fill="#23AE81"/>
<path d="M104.83 40.8325C106.3 41.3825 112.07 40.3025 111.56 43.2925L110.73 51.8825C110.65 54.8825 105.21 52.8025 103.65 53.0125C102.78 52.9325 101.99 53.6625 101.9 54.6525C101.99 56.7225 99.81 67.9325 101.34 69.5525C102.76 72.3325 109.28 69.3125 109.3 73.1725C108.7 74.5225 109.59 83.9025 106.72 83.4125C103.61 82.8325 96.02 83.0425 93.35 81.2325C80.96 75.1225 92.61 54.6125 87.51 51.4625C86.07 51.1425 82.14 51.7825 82.53 49.1725L83.36 40.5825C83.86 36.6725 89.95 41.5525 90.45 37.6425C92.43 24.0825 87.87 24.3325 103.07 26.0825C107.13 26.7025 100.76 40.2025 104.83 40.8325Z" fill="#79BB56"/>
<path d="M108.02 57.1424C107.04 20.8824 168.9 20.6824 167.85 57.0624C168.81 93.1924 107.22 93.1924 108.02 57.1424ZM137.93 70.0824C154.42 70.7924 154.42 43.2624 137.93 44.0324C121.45 43.3324 121.39 70.8224 137.93 70.0824Z" fill="#23AE81"/>
<path d="M134.43 24.4325C139.65 20.7525 153.6 12.5825 155.06 15.1425C156.52 17.7025 150.98 21.7725 154.22 20.9725C157.46 20.1825 199.41 -1.43753 201.2 2.47247C202.99 6.38247 172.56 33.0325 174.68 32.8125C176.8 32.5925 181.51 30.6625 181.07 31.9025C180.63 33.1425 171.76 40.4725 172.71 41.1325C173.66 41.7925 193.34 31.8425 194.32 34.0725C195.3 36.3025 172.12 54.3525 172.12 54.3525" stroke="#23AE81" stroke-width="4" stroke-miterlimit="10" stroke-linecap="round"/>
<path d="M167.85 20.7725L157.44 27.3425" stroke="#23AE81" stroke-width="3" stroke-miterlimit="10" stroke-linecap="round"/>
<path d="M172.41 24.3225L164.15 30.5725" stroke="#23AE81" stroke-width="3" stroke-miterlimit="10" stroke-linecap="round"/>
</svg>
